<?xml version="1.0" encoding="UTF-8" standalone="no"?>
<!-- Created with Inkscape (http://www.inkscape.org/) -->

<svg
   xmlns:dc="http://purl.org/dc/elements/1.1/"
   xmlns:cc="http://creativecommons.org/ns#"
   xmlns:rdf="http://www.w3.org/1999/02/22-rdf-syntax-ns#"
   xmlns:svg="http://www.w3.org/2000/svg"
   xmlns="http://www.w3.org/2000/svg"
   xmlns:sodipodi="http://sodipodi.sourceforge.net/DTD/sodipodi-0.dtd"
   xmlns:inkscape="http://www.inkscape.org/namespaces/inkscape"
   version="1.1"
   id="svg2"
   xml:space="preserve"
   width="188.97333"
   height="188.97333"
   viewBox="0 0 188.97333 188.97333"
   sodipodi:docname="TUD_Iconset_Seminarraum.svg"
   inkscape:version="0.92.3 (unknown)"><metadata
     id="metadata8"><rdf:RDF><cc:Work
         rdf:about=""><dc:format>image/svg+xml</dc:format><dc:type
           rdf:resource="http://purl.org/dc/dcmitype/StillImage" /><dc:title></dc:title></cc:Work></rdf:RDF></metadata><defs
     id="defs6" /><sodipodi:namedview
     pagecolor="#ffffff"
     bordercolor="#666666"
     borderopacity="1"
     objecttolerance="10"
     gridtolerance="10"
     guidetolerance="10"
     inkscape:pageopacity="0"
     inkscape:pageshadow="2"
     inkscape:window-width="1855"
     inkscape:window-height="1056"
     id="namedview4"
     showgrid="false"
     inkscape:zoom="1.2488535"
     inkscape:cx="94.486664"
     inkscape:cy="190.5748"
     inkscape:window-x="65"
     inkscape:window-y="24"
     inkscape:window-maximized="1"
     inkscape:current-layer="g10" /><g
     id="g10"
     inkscape:groupmode="layer"
     inkscape:label="ink_ext_XXXXXX"
     transform="matrix(1.3333333,0,0,-1.3333333,0,188.97333)"><g
       id="g12"
       transform="scale(0.1)"><path
         d="m 646.188,912.77 h 28.5 v 55.5 l -57,29.25 57,31.5 0.75,8.25 c 2.25,69 60,124.5 129,124.5 h 129.75 c 71.252,0 129.752,-57.75 129.752,-129 v -120 c 0,-71.25 -58.5,-129.75 -129.752,-129.75 h -129.75 v -28.5 h 129.75 c 87.002,0 158.252,71.25 158.252,158.25 v 120 c 0,87 -71.25,158.25 -158.252,158.25 h -129.75 c -81.75,0 -150.75,-64.5 -157.5,-144.75 l -90.75,-50.25 90,-45 z m -239.25,33 c 50.25,0 90.75,40.5 90.75,91.5 0,50.25 -40.5,90.75 -90.75,90.75 -51,0 -91.5,-40.5 -91.5,-90.75 0,-51 40.5,-91.5 91.5,-91.5 z m 0,153.75 c 34.5,0 62.25,-27.75 62.25,-62.25 0,-34.5 -27.75,-63 -62.25,-63 -34.5,0 -63,28.5 -63,63 0,34.5 28.5,62.25 63,62.25 z m 587.25,-50.25 h -238.5 v -29.25 h 238.5 z m -4.5,-69.75 h -228.75 v -28.5 h 228.75 z m -234,-108 -6,12.75 -13.5,-5.25 c -39,-18 -92.25,-41.25 -112.5,-50.25 l -108,89.25 h -274.5 c 0,-225.75 -8.25,-245.25 23.25,-272.25 21,-18.75 37.5,-15.75 66.75,-12.75 v 201 h -28.5 v -174 c -7.5,0.75 -14.25,3 -19.5,7.5 -12.75,10.5 -13.5,30.75 -13.5,30.75 v 190.5 h 236.25 l 112.5,-93.75 8.25,3.75 107.25,47.25 c 3.75,-30.75 -29.25,-48.75 -33.75,-51 l -100.5,-51.75 -99,87.75 V 698.27 h 28.5 v 69.75 l 66,-58.5 117.75,60 c 25.5,12.75 66.75,50.25 42.75,102 z m 179.25,10.5 v 28.5 h -119.25 v -28.5 z m -290.25,-484.5 c 0,45 -33.75,83.25 -77.25,90 -8.25,41.25 -45,72.75 -89.25,72.75 -33,0 -62.25,-18 -78,-44.25 -15.75,26.25 -45,44.25 -78,44.25 -50.25,0 -91.5,-41.25 -91.5,-91.5 0,-45.75 33.75,-83.25 77.25,-90 1.5,-7.5 4.5,-15 8.25,-22.5 v -0.75 h 370.5 v 27 h -43.5 c 0.75,5.25 1.5,9.75 1.5,15 z m 499.502,-15 c 0.75,5.25 1.5,9.75 1.5,15 0,45 -33.75,83.25 -77.25,90 -8.25,41.25 -45,72.75 -89.252,72.75 -33,0 -62.25,-18 -78,-44.25 -16.5,26.25 -45,44.25 -78.75,44.25 -50.25,0 -90.75,-41.25 -90.75,-91.5 0,-45.75 33,-83.25 76.5,-90 2.25,-7.5 5.25,-15 8.25,-22.5 v -0.75 h 370.502 v 27 z m -837.752,25.5 c -27,7.5 -47.25,31.5 -47.25,60.75 0,34.5 28.5,63 63,63 27.75,0 51.75,-18.75 59.25,-44.25 -39,-6.75 -69.75,-39 -75,-79.5 z m 168.75,36 c -12,21 -33,36 -57,42 7.5,26.25 31.5,45.75 60,45.75 28.5,0 51.75,-18.75 60,-44.25 -27,-5.25 -49.5,-21 -63,-43.5 z m 332.25,-36 c -27,7.5 -47.25,31.5 -47.25,60.75 0,34.5 27.75,63 62.25,63 28.5,0 51.75,-18.75 60,-44.25 -39.75,-6.75 -70.5,-39 -75,-79.5 z m 168.75,36 c -12.75,21 -33,36 -57,42 7.5,26.25 31.5,45.75 60,45.75 27.752,0 51.752,-18.75 59.252,-44.25 -26.25,-5.25 -48.752,-21 -62.252,-43.5 z m -518.25,-61.5 h -121.5 c -0.75,5.25 -1.5,9.75 -1.5,15 0,38.25 31.5,62.25 62.25,62.25 37.5,0 63,-32.25 63,-62.25 0,-5.25 -1.5,-9.75 -2.25,-15 z m 156,0 h -120.75 c -1.5,5.25 -2.25,9.75 -2.25,15 0,33 27,62.25 62.25,62.25 28.5,0 63,-22.5 63,-62.25 0,-5.25 -0.75,-9.75 -2.25,-15 z m 344.25,0 h -120.75 c -1.5,5.25 -2.25,9.75 -2.25,15 0,40.5 36,62.25 63,62.25 27.75,0 62.25,-21 62.25,-62.25 0,-5.25 -0.75,-9.75 -2.25,-15 z m 156.752,0 H 993.438 c -0.75,5.25 -2.25,9.75 -2.25,15 0,29.25 25.502,62.25 63.002,62.25 24.75,0 62.25,-20.25 62.25,-62.25 0,-5.25 -0.75,-9.75 -1.5,-15"
         style="fill:#0d2548;fill-opacity:1;fill-rule:nonzero;stroke:none"
         id="path14"
         inkscape:connector-curvature="0" /></g></g></svg>